# xmcd CD database file
#
# Track frame offsets:
#	150
#	27640
#	59912
#	95400
#	118087
#	155250
#
# Disc length: 2496 seconds
#
# Revision: 0
# Processed by: cddbd v1.4PL0 Copyright (c) Steve Scherf et al.
# Submitted via: CDex 1.50
#
DISCID=5109be06
DTITLE=Jackie Mclean - Jackie Mclean Quintet
DYEAR=1962
DGENRE=Jazz
TTITLE0=The Three Minors
TTITLE1=Blues In A Riff
TTITLE2=Blues For Jackie
TTITLE3=Marilyn'a Dilemma
TTITLE4=Iddy Bitty
TTITLE5=The Way I Feel
EXTD=YEAR: 1962
EXTT0=
EXTT1=
EXTT2=
EXTT3=
EXTT4=
EXTT5=
PLAYORDER=
